<svg xmlns="http://www.w3.org/2000/svg" viewBox="0 0 200 200" role="img" aria-label="炼金术士段位徽章">
  <defs>
    <radialGradient id="alchemist-glow" cx="50%" cy="50%" r="50%">
      <stop offset="0%"  stop-color="#4a148c" stop-opacity="0.25"/>
      <stop offset="60%" stop-color="#4a148c" stop-opacity="0.05"/>
      <stop offset="100%" stop-color="#4a148c" stop-opacity="0"/>
    </radialGradient>
    <radialGradient id="alchemist-inner" cx="50%" cy="40%" r="60%">
      <stop offset="0%"  stop-color="#7b1fa2" stop-opacity="0.12"/>
      <stop offset="100%" stop-color="#311b92" stop-opacity="0.04"/>
    </radialGradient>
    <linearGradient id="alchemist-liquid" x1="0%" y1="100%" x2="0%" y2="0%">
      <stop offset="0%"  stop-color="#ce93d8" stop-opacity="0.7"/>
      <stop offset="100%" stop-color="#e1bee7" stop-opacity="0.3"/>
    </linearGradient>
  </defs>
  <circle cx="100" cy="100" r="94" fill="url(#alchemist-glow)"/>
  <circle cx="100" cy="100" r="80" fill="url(#alchemist-inner)" stroke="#4a148c" stroke-width="2.5" stroke-opacity="0.45"/>
  <path d="M72 60 L128 60 L138 140 Q140 152 128 157 L72 157 Q60 152 62 140 Z"
        fill="none" stroke="#ce93d8" stroke-width="3.5" stroke-linejoin="round"/>
  <path d="M88 60 L88 42 Q88 36 94 36 L106 36 Q112 36 112 42 L112 60"
        fill="none" stroke="#ce93d8" stroke-width="3.5" stroke-linejoin="round"/>
  <rect x="86" y="32" width="28" height="6" rx="2" fill="none" stroke="#ce93d8" stroke-width="2.5"/>
  <path d="M76 120 Q100 108 124 120 L127 148 Q100 155 73 148 Z"
        fill="url(#alchemist-liquid)"/>
  <circle cx="92" cy="132" r="3" fill="#e1bee7" opacity="0.5"/>
  <circle cx="105" cy="125" r="2" fill="#e1bee7" opacity="0.4"/>
  <circle cx="98" cy="142" r="1.5" fill="#e1bee7" opacity="0.3"/>
  <polygon points="148,50 155,42 162,50 155,58" fill="none" stroke="#ce93d8" stroke-width="1.5" opacity="0.5"/>
  <polygon points="42,80 47,74 52,80 47,86" fill="none" stroke="#ce93d8" stroke-width="1.5" opacity="0.35"/>
</svg>
