<svg xmlns="http://www.w3.org/2000/svg" viewBox="0 0 200 200" role="img" aria-label="无界段位徽章">
  <defs>
    <radialGradient id="boundless-glow" cx="50%" cy="50%" r="50%">
      <stop offset="0%"  stop-color="#ffd700" stop-opacity="0.3"/>
      <stop offset="40%" stop-color="#f59e0b" stop-opacity="0.1"/>
      <stop offset="100%" stop-color="#ffd700" stop-opacity="0"/>
    </radialGradient>
    <radialGradient id="boundless-inner" cx="50%" cy="40%" r="60%">
      <stop offset="0%"  stop-color="#ffd700" stop-opacity="0.1"/>
      <stop offset="100%" stop-color="#b8860b" stop-opacity="0.04"/>
    </radialGradient>
    <linearGradient id="boundless-ring" x1="0%" y1="0%" x2="100%" y2="100%">
      <stop offset="0%"   stop-color="#ffd700" stop-opacity="0.7"/>
      <stop offset="50%"  stop-color="#f59e0b" stop-opacity="0.5"/>
      <stop offset="100%" stop-color="#ffd700" stop-opacity="0.7"/>
    </linearGradient>
  </defs>
  <circle cx="100" cy="100" r="94" fill="url(#boundless-glow)"/>
  <circle cx="100" cy="100" r="80" fill="url(#boundless-inner)" stroke="url(#boundless-ring)" stroke-width="3"/>
  <ellipse cx="100" cy="100" rx="58" ry="22" fill="none" stroke="#ffd700" stroke-width="1.5" stroke-opacity="0.25"
           transform="rotate(-25 100 100)"/>
  <path d="M68 85 C68 65 54 58 46 70 C34 88 58 112 100 112 C142 112 166 88 154 70
           C146 58 132 65 132 85 C132 105 146 112 154 100 C166 82 142 58 100 58
           C58 58 34 82 46 100"
        fill="none" stroke="#ffd700" stroke-width="3.5" stroke-linecap="round" stroke-linejoin="round"/>
  <circle cx="100" cy="85" r="5" fill="#ffd700" opacity="0.9"/>
  <circle cx="100" cy="85" r="10" fill="#ffd700" opacity="0.15"/>
  <circle cx="152" cy="38" r="3.5" fill="#ffd700" opacity="0.55"/>
  <circle cx="44"  cy="50" r="2.5" fill="#ffd700" opacity="0.4"/>
  <circle cx="160" cy="115" r="2" fill="#ffd700" opacity="0.35"/>
  <circle cx="38"  cy="138" r="2" fill="#f59e0b" opacity="0.3"/>
  <circle cx="130" cy="155" r="1.5" fill="#ffd700" opacity="0.3"/>
</svg>
