<svg xmlns="http://www.w3.org/2000/svg" viewBox="0 0 200 200" role="img" aria-label="无界段位徽章">
  <defs>
    <radialGradient id="g8" cx="50%" cy="50%" r="50%">
      <stop offset="0%"  stop-color="#ffd700" stop-opacity="0.25"/>
      <stop offset="35%" stop-color="#f59e0b" stop-opacity="0.08"/>
      <stop offset="70%" stop-color="#ff8f00" stop-opacity="0.02"/>
      <stop offset="100%" stop-color="#0d1b2a" stop-opacity="0"/>
    </radialGradient>
    <radialGradient id="f8" cx="45%" cy="38%" r="62%">
      <stop offset="0%" stop-color="#2a2000"/><stop offset="55%" stop-color="#191200"/>
      <stop offset="100%" stop-color="#0d0900"/>
    </radialGradient>
    <linearGradient id="b8" x1="5%" y1="5%" x2="95%" y2="95%">
      <stop offset="0%" stop-color="#ffe082"/><stop offset="22%" stop-color="#ffd700"/>
      <stop offset="42%" stop-color="#ffffff"/><stop offset="55%" stop-color="#ffd700"/>
      <stop offset="72%" stop-color="#b8860b"/><stop offset="100%" stop-color="#ffc107"/>
    </linearGradient>
    <radialGradient id="core8" cx="50%" cy="50%" r="50%">
      <stop offset="0%" stop-color="#fff"/><stop offset="30%" stop-color="#fff9c4"/>
      <stop offset="65%" stop-color="#ffd700"/><stop offset="100%" stop-color="#f59e0b" stop-opacity="0"/>
    </radialGradient>
    <linearGradient id="sh8" x1="0%" y1="0%" x2="0%" y2="100%">
      <stop offset="0%" stop-color="#fff" stop-opacity="0.18"/>
      <stop offset="100%" stop-color="#fff" stop-opacity="0"/>
    </linearGradient>
    <filter id="bloom8">
      <feGaussianBlur stdDeviation="2" result="blur"/>
      <feMerge><feMergeNode in="blur"/><feMergeNode in="SourceGraphic"/></feMerge>
    </filter>
  </defs>

  <!-- 外光晕双层 -->
  <circle cx="100" cy="100" r="96" fill="url(#g8)"/>
  <circle cx="100" cy="100" r="64" fill="none" stroke="#ffd700" stroke-width="2.5" stroke-opacity="0.06"/>

  <!-- 芒尖 8方向（L8专属） -->
  <g fill="#ffd700" opacity="0.15" filter="url(#bloom8)">
    <polygon points="100,2 96,14 100,22 104,14"/>
    <polygon points="100,198 96,186 100,178 104,186"/>
    <polygon points="2,100 14,96 22,100 14,104"/>
    <polygon points="198,100 186,96 178,100 186,104"/>
    <polygon points="30,30 37,37 42,35 41,43 35,48 28,43"/>
    <polygon points="170,30 163,37 158,35 159,43 165,48 172,43"/>
    <polygon points="30,170 37,163 42,158 43,164 48,170 43,175"/>
    <polygon points="170,170 163,163 158,158 159,164 165,170 172,175"/>
  </g>

  <!-- 铭文装饰环 -->
  <circle cx="100" cy="100" r="91" fill="none" stroke="#ffd700" stroke-width="0.8" stroke-opacity="0.25" stroke-dasharray="2 10"/>
  <circle cx="100" cy="100" r="91" fill="none" stroke="#fff" stroke-width="0.5" stroke-opacity="0.12" stroke-dasharray="2 10" stroke-dashoffset="5"/>

  <!-- 金属边框 8px -->
  <circle cx="100" cy="100" r="78" fill="none" stroke="url(#b8)" stroke-width="8"/>
  <circle cx="100" cy="100" r="73" fill="none" stroke="#fff" stroke-width="0.8" opacity="0.08"/>
  <circle cx="100" cy="100" r="83" fill="none" stroke="#fff" stroke-width="0.8" opacity="0.06"/>

  <!-- 底盘 -->
  <circle cx="100" cy="100" r="72" fill="url(#f8)"/>

  <!-- ═══ L8 超越态神经网络 · 极简神经曼荼罗 ═══ -->
  <g transform="translate(100, 85)" fill="none" stroke-linecap="round" stroke-linejoin="round">

    <!-- ── 第1层：中央蝶形环（胼胝体区 · 比L1更完美） ── -->
    <path d="M-6,-2 C-4,-10 4,-10 6,-2 C4,5 -4,5 -6,-2 Z"
          stroke="#fff" stroke-width="2" opacity="0.8"/>
    <circle cx="0" cy="-2" r="2.5" fill="#fff" opacity="0.9" filter="url(#bloom8)"/>
    <circle cx="0" cy="-2" r="1" fill="#fff"/>

    <!-- ── 第2层：内环分支（每半球3条主弧线） ── -->
    <!-- 左上 -->
    <path d="M-4,-6 C-16,-10 -26,-18 -24,-26" stroke="#ffe082" stroke-width="2" opacity="0.7"/>
    <path d="M-14,-12 C-20,-18 -24,-24 -22,-30" stroke="#ffd700" stroke-width="1.3" opacity="0.45"/>
    <!-- 左中 -->
    <path d="M-4,-2 C-18,-2 -28,4 -26,12" stroke="#ffe082" stroke-width="2" opacity="0.7"/>
    <!-- 左下 -->
    <path d="M-4,4 C-16,10 -24,18 -22,26" stroke="#ffe082" stroke-width="2" opacity="0.7"/>
    <path d="M-14,12 C-20,18 -22,24 -20,30" stroke="#ffd700" stroke-width="1.3" opacity="0.45"/>

    <!-- 右上 -->
    <path d="M4,-6 C16,-10 26,-18 24,-26" stroke="#ffe082" stroke-width="2" opacity="0.7"/>
    <path d="M14,-12 C20,-18 24,-24 22,-30" stroke="#ffd700" stroke-width="1.3" opacity="0.45"/>
    <!-- 右中 -->
    <path d="M4,-2 C18,-2 28,4 26,12" stroke="#ffe082" stroke-width="2" opacity="0.7"/>
    <!-- 右下 -->
    <path d="M4,4 C16,10 24,18 22,26" stroke="#ffe082" stroke-width="2" opacity="0.7"/>
    <path d="M14,12 C20,18 24,24 22,30" stroke="#ffd700" stroke-width="1.3" opacity="0.45"/>

    <!-- ── 第3层：外环回流弧（形成闭环，象征"无限"） ── -->
    <path d="M-24,-26 C-32,-28 -36,-20 -32,-12 C-28,-4 -22,-2 -18,-6"
          stroke="#ffd700" stroke-width="1.6" opacity="0.45"/>
    <path d="M-22,26 C-30,28 -34,20 -30,14 C-26,8 -20,6 -16,10"
          stroke="#ffd700" stroke-width="1.6" opacity="0.45"/>
    <path d="M24,-26 C32,-28 36,-20 32,-12 C28,-4 22,-2 18,-6"
          stroke="#ffd700" stroke-width="1.6" opacity="0.45"/>
    <path d="M22,26 C30,28 34,20 30,14 C26,8 20,6 16,10"
          stroke="#ffd700" stroke-width="1.6" opacity="0.45"/>

    <!-- ── 第4层：顶部冠冕弧（跨越左右半球） ── -->
    <path d="M-22,-28 C-11,-42 11,-42 22,-28" stroke="#fff" stroke-width="1.5" opacity="0.45"/>
    <path d="M-16,-32 C-8,-44 8,-44 16,-32" stroke="#ffd700" stroke-width="1" opacity="0.3"/>

    <!-- ── 脑干：流线型下行 ── -->
    <path d="M-2,14 C-4,22 -3,30 -1,34 C1,30 2,22 2,14" stroke="#ffe082" stroke-width="1.8" opacity="0.5"/>

    <!-- 神经节点（全圆形，比L1更密更亮） -->
    <g fill="#ffe082">
      <circle cx="-24" cy="-26" r="2.5" opacity="0.7"/>
      <circle cx="24" cy="-26" r="2.5" opacity="0.7"/>
      <circle cx="-26" cy="12" r="2.5" opacity="0.7"/>
      <circle cx="26" cy="12" r="2.5" opacity="0.7"/>
      <circle cx="-22" cy="26" r="2.5" opacity="0.7"/>
      <circle cx="22" cy="26" r="2.5" opacity="0.7"/>
      <circle cx="-22" cy="-30" r="2" opacity="0.5"/>
      <circle cx="22" cy="-30" r="2" opacity="0.5"/>
      <circle cx="-20" cy="30" r="2" opacity="0.5"/>
      <circle cx="20" cy="30" r="2" opacity="0.5"/>
      <circle cx="0" cy="-42" r="2" opacity="0.45"/>
    </g>

    <!-- 白金星点（终极段位专属） -->
    <g fill="#fff">
      <circle cx="-30" cy="-8" r="1.2" opacity="0.7"/>
      <circle cx="30" cy="-8" r="1.2" opacity="0.7"/>
      <circle cx="-12" cy="-36" r="1" opacity="0.6"/>
      <circle cx="12" cy="-36" r="1" opacity="0.6"/>
      <circle cx="0" cy="28" r="1.5" opacity="0.5"/>
    </g>

    <!-- ── 溢出射线：从神经网络向外辐射 ── -->
    <g stroke="#ffd700" stroke-width="0.8" opacity="0.25" filter="url(#bloom8)">
      <line x1="0" y1="-38" x2="0" y2="-52"/>
      <line x1="-28" y1="-18" x2="-42" y2="-26"/>
      <line x1="28" y1="-18" x2="42" y2="-26"/>
      <line x1="-30" y1="8" x2="-44" y2="10"/>
      <line x1="30" y1="8" x2="44" y2="10"/>
    </g>
  </g>

  <!-- 表面高光 -->
  <ellipse cx="84" cy="44" rx="34" ry="17" fill="url(#sh8)" transform="rotate(-15 84 44)"/>

  <!-- 粒子 L8=16 -->
  <g fill="#ffd700">
    <circle cx="26" cy="68" r="2.2" opacity="0.5"/><circle cx="176" cy="40" r="2.8" opacity="0.55"/>
    <circle cx="30" cy="132" r="1.8" opacity="0.38"/><circle cx="172" cy="135" r="2.2" opacity="0.42"/>
    <circle cx="22" cy="98" r="1.5" opacity="0.28"/><circle cx="180" cy="92" r="1.8" opacity="0.32"/>
    <circle cx="38" cy="168" r="1.6" opacity="0.28"/><circle cx="162" cy="170" r="1.8" opacity="0.32"/>
    <circle cx="48" cy="36" r="1.5" opacity="0.32"/><circle cx="150" cy="30" r="1.8" opacity="0.38"/>
    <circle cx="16" cy="50" r="1.2" opacity="0.22"/><circle cx="186" cy="58" r="1.5" opacity="0.24"/>
    <circle cx="44" cy="152" r="1.2" opacity="0.2"/><circle cx="157" cy="152" r="1.5" opacity="0.24"/>
    <circle cx="10" cy="78" r="1" opacity="0.18"/><circle cx="192" cy="112" r="1.2" opacity="0.2"/>
  </g>
  <g fill="#fff">
    <circle cx="172" cy="56" r="1.2" opacity="0.65"/><circle cx="28" cy="50" r="1" opacity="0.55"/>
    <circle cx="112" cy="24" r="1.5" opacity="0.5"/><circle cx="88" cy="176" r="1.2" opacity="0.4"/>
  </g>
</svg>
